<svg width="34" height="41" viewBox="0 0 34 41" fill="none" xmlns="http://www.w3.org/2000/svg">
<path d="M21.3789 3.52417L21.7539 3.56453H26.9414V7.4394H21.7539C21.4622 7.4394 21.181 7.45286 20.9102 7.47977C20.6393 7.50668 20.4206 7.55377 20.2539 7.62104C20.0872 7.68831 19.931 7.76231 19.7852 7.84304C19.6393 7.92376 19.5143 8.00449 19.4102 8.08522C19.306 8.16594 19.2227 8.2534 19.1602 8.34758C19.0977 8.44176 19.056 8.52249 19.0352 8.58976L18.9727 8.79157L18.9414 8.93285V15.1488H29.0664L27.6289 19.0237H18.9414V38.398H12.9414V19.0237H4.94141V15.1488H12.9414V9.13466C12.9414 8.30049 13.1081 7.55377 13.4414 6.8945C13.7747 6.23523 14.2227 5.71724 14.7852 5.34051C15.3477 4.96379 15.9206 4.64088 16.5039 4.3718C17.0872 4.10271 17.7331 3.91435 18.4414 3.80671C19.1497 3.69907 19.7122 3.62508 20.1289 3.58471C20.5456 3.54435 20.9622 3.52417 21.3789 3.52417ZM21.3789 0.940918C18.7956 0.940918 16.4831 1.34455 14.4414 2.15182C10.7747 3.57798 8.94141 5.9056 8.94141 9.13466V12.5655H4.94141C3.85807 12.5655 2.92057 12.8212 2.12891 13.3324C1.33724 13.8437 0.941406 14.4492 0.941406 15.1488V19.0237C0.941406 19.7233 1.33724 20.3287 2.12891 20.84C2.92057 21.3513 3.85807 21.6069 4.94141 21.6069H8.94141V38.3577C8.94141 39.0842 9.32682 39.6964 10.0977 40.1942C10.8685 40.692 11.8164 40.9409 12.9414 40.9409H18.9414C20.0247 40.9409 20.9622 40.692 21.7539 40.1942C22.5456 39.6964 22.9414 39.0842 22.9414 38.3577V21.6069H27.6289C28.5456 21.6069 29.3581 21.432 30.0664 21.0822C30.7747 20.7324 31.2539 20.2884 31.5039 19.7502L32.8789 15.8753C33.2539 15.0412 33.0456 14.281 32.2539 13.5948C31.4622 12.9086 30.3997 12.5655 29.0664 12.5655H22.9414V10.0227H26.9414C28.0247 10.0227 28.9622 9.76702 29.7539 9.25575C30.5456 8.74448 30.9414 8.13903 30.9414 7.4394V3.56453C30.9414 2.83799 30.556 2.22582 29.7852 1.728C29.0143 1.23019 28.0872 0.981281 27.0039 0.981281H21.8789C21.7122 0.954372 21.5456 0.940918 21.3789 0.940918Z" fill="white"/>
</svg>
