<svg width="31" height="31" viewBox="0 0 31 31" fill="none" xmlns="http://www.w3.org/2000/svg">
<path d="M29.2222 5.18497C28.8364 4.1886 28.2468 3.28377 27.4911 2.5284C26.7355 1.77303 25.8304 1.18375 24.8339 0.798301C23.6678 0.360562 22.4359 0.123869 21.1906 0.0983006C19.5856 0.0283006 19.0772 0.00830078 15.0072 0.00830078C10.9372 0.00830078 10.4156 0.00830061 8.82391 0.0983006C7.57955 0.122562 6.3485 0.359303 5.18391 0.798301C4.18713 1.1833 3.28185 1.77242 2.52613 2.52785C1.77041 3.28328 1.18095 4.18834 0.795573 5.18497C0.357747 6.35099 0.121597 7.58303 0.0972396 8.8283C0.0255729 10.4316 0.00390625 10.94 0.00390625 15.0116C0.00390625 19.0816 0.00390624 19.6 0.0972396 21.195C0.12224 22.4416 0.357239 23.6716 0.795573 24.84C1.18204 25.8362 1.77207 26.7409 2.52797 27.4963C3.28387 28.2516 4.18901 28.8409 5.18557 29.2266C6.34796 29.682 7.57952 29.9356 8.82724 29.9766C10.4322 30.0466 10.9406 30.0683 15.0106 30.0683C19.0806 30.0683 19.6022 30.0683 21.1939 29.9766C22.4391 29.9513 23.671 29.7152 24.8372 29.2783C25.8335 28.892 26.7383 28.3022 27.4939 27.5466C28.2494 26.791 28.8392 25.8862 29.2256 24.89C29.6639 23.7233 29.8989 22.4933 29.9239 21.2466C29.9956 19.6433 30.0172 19.135 30.0172 15.0633C30.0172 10.9916 30.0172 10.475 29.9239 8.87997C29.9045 7.61709 29.6671 6.36705 29.2222 5.18497ZM27.1922 21.0716C27.1815 22.0321 27.0062 22.9837 26.6739 23.885C26.4236 24.5331 26.0404 25.1216 25.549 25.6128C25.0576 26.1039 24.4688 26.4867 23.8206 26.7366C22.9293 27.0674 21.9878 27.2427 21.0372 27.255C19.4539 27.3283 19.0072 27.3466 14.9472 27.3466C10.8839 27.3466 10.4689 27.3466 8.85557 27.255C7.90545 27.2433 6.96445 27.068 6.07391 26.7366C5.42338 26.4883 4.83224 26.1061 4.33872 25.6149C3.8452 25.1237 3.4603 24.5343 3.20891 23.885C2.88132 22.9934 2.70609 22.053 2.69057 21.1033C2.61891 19.52 2.60224 19.0733 2.60224 15.0133C2.60224 10.9516 2.60224 10.5366 2.69057 8.92163C2.70135 7.96167 2.87666 7.01067 3.20891 6.10997C3.71724 4.79497 4.75891 3.75997 6.07391 3.25663C6.96489 2.92687 7.90561 2.75157 8.85557 2.7383C10.4406 2.66663 10.8856 2.64663 14.9472 2.64663C19.0089 2.64663 19.4256 2.64663 21.0372 2.7383C21.9879 2.74974 22.9295 2.92509 23.8206 3.25663C24.4688 3.50709 25.0575 3.8903 25.5489 4.38168C26.0402 4.87306 26.4234 5.46175 26.6739 6.10997C27.0015 7.00155 27.1767 7.9419 27.1922 8.89163C27.2639 10.4766 27.2822 10.9216 27.2822 14.9833C27.2822 19.0433 27.2822 19.48 27.2106 21.0733H27.1922V21.0716Z" fill="white"/>
</svg>
